# xmcd
#
# Track frame offsets:
#	150
#	15298
#	27266
#	42233
#	60252
#	79179
#	92365
#	105520
#	123986
#	135111
#	151521
#	172001
#	188606
#	200575
#	213714
#	227301
#	237401
#	249906
#	264963
#	279487
#
# Disc length: 3926 seconds
#
# Revision: 1
# Processed by: cddbd v1.5.2PL0 Copyright (c) Steve Scherf et al.
# Submitted via: audiograbber 1.83.01
#
DISCID=eb0f5414
DTITLE=ICMAG - ICMAG 2000-06
DYEAR=2000
DGENRE=Country
TTITLE0=Time To Change Your Mind  - Mark Bender
TTITLE1=Are You With Me On This - Lance Alen
TTITLE2=Corpus Christi Bay - Marion Randell and Larry Butler
TTITLE3=Country Polka  - Leif Kerstein and Winchesters
TTITLE4=Before You Go  - Groucho
TTITLE5=Daddy Whipped The Devil - Glyn Martin
TTITLE6=Rose Of The Mountains  - Hermann Lammers Meyer
TTITLE7=Homeboy Shoes  - Sheri Frushay
TTITLE8=I Tripped Over Memory  - Mindy Miller
TTITLE9=If Those Lips Could Only Speak - Jerry Piper
TTITLE10=Margaritaville  - Baton Rouge
TTITLE11=I Needed You  - Karen Pentley and Vern Gosdin
TTITLE12=Ready Willing And Able  - Gunsmoke
TTITLE13=Lean On Jesus  - Jerry Jones
TTITLE14=The Chaser  - Ron Jordan
TTITLE15=I´m Outta Here, L´m Historie, L´m Gone - Colin Clark
TTITLE16=The Jukebox Has A 45  - Charlie Shearer
TTITLE17=Wishes  - Jim Russ
TTITLE18=Wishing  - Mike Headrick
TTITLE19=Zeit Für Sinneswandel - Mark Bender
EXTD=
EXTT0=
EXTT1=
EXTT2=
EXTT3=
EXTT4=
EXTT5=
EXTT6=
EXTT7=
EXTT8=
EXTT9=
EXTT10=
EXTT11=
EXTT12=
EXTT13=
EXTT14=
EXTT15=
EXTT16=
EXTT17=
EXTT18=
EXTT19=
PLAYORDER=
